<mxfile host="app.diagrams.net" modified="2024-02-18T17:31:24.222Z" agent="Mozilla/5.0 (Windows NT 10.0; Win64; x64) AppleWebKit/537.36 (KHTML, like Gecko) Chrome/121.0.0.0 Safari/537.36" etag="XYYmpuXfqqK4jvdF2Xmy" version="23.1.5" type="device">
  <diagram name="Page-1" id="2YBvvXClWsGukQMizWep">
    <mxGraphModel dx="880" dy="468" grid="1" gridSize="10" guides="1" tooltips="1" connect="1" arrows="1" fold="1" page="1" pageScale="1" pageWidth="850" pageHeight="1100" math="0" shadow="0">
      <root>
        <mxCell id="0" />
        <mxCell id="1" parent="0" />
        <mxCell id="CG28MD9KbIUiWtX6ZoJQ-3" value="" style="shape=umlLifeline;perimeter=lifelinePerimeter;whiteSpace=wrap;html=1;container=1;dropTarget=0;collapsible=0;recursiveResize=0;outlineConnect=0;portConstraint=eastwest;newEdgeStyle={&quot;curved&quot;:0,&quot;rounded&quot;:0};participant=umlActor;" vertex="1" parent="1">
          <mxGeometry x="70" y="80" width="20" height="490" as="geometry" />
        </mxCell>
        <mxCell id="CG28MD9KbIUiWtX6ZoJQ-57" value="" style="html=1;points=[[0,0,0,0,5],[0,1,0,0,-5],[1,0,0,0,5],[1,1,0,0,-5]];perimeter=orthogonalPerimeter;outlineConnect=0;targetShapes=umlLifeline;portConstraint=eastwest;newEdgeStyle={&quot;curved&quot;:0,&quot;rounded&quot;:0};" vertex="1" parent="CG28MD9KbIUiWtX6ZoJQ-3">
          <mxGeometry x="5" y="48" width="10" height="342" as="geometry" />
        </mxCell>
        <mxCell id="CG28MD9KbIUiWtX6ZoJQ-4" value="Driver" style="text;html=1;align=center;verticalAlign=middle;resizable=0;points=[];autosize=1;strokeColor=none;fillColor=none;" vertex="1" parent="1">
          <mxGeometry x="50" y="48" width="60" height="30" as="geometry" />
        </mxCell>
        <mxCell id="CG28MD9KbIUiWtX6ZoJQ-5" value="Vehicle" style="shape=umlLifeline;perimeter=lifelinePerimeter;whiteSpace=wrap;html=1;container=1;dropTarget=0;collapsible=0;recursiveResize=0;outlineConnect=0;portConstraint=eastwest;newEdgeStyle={&quot;curved&quot;:0,&quot;rounded&quot;:0};" vertex="1" parent="1">
          <mxGeometry x="140" y="78" width="100" height="492" as="geometry" />
        </mxCell>
        <mxCell id="CG28MD9KbIUiWtX6ZoJQ-58" value="" style="html=1;points=[[0,0,0,0,5],[0,1,0,0,-5],[1,0,0,0,5],[1,1,0,0,-5]];perimeter=orthogonalPerimeter;outlineConnect=0;targetShapes=umlLifeline;portConstraint=eastwest;newEdgeStyle={&quot;curved&quot;:0,&quot;rounded&quot;:0};" vertex="1" parent="CG28MD9KbIUiWtX6ZoJQ-5">
          <mxGeometry x="45" y="52" width="10" height="38" as="geometry" />
        </mxCell>
        <mxCell id="CG28MD9KbIUiWtX6ZoJQ-68" value="" style="html=1;points=[[0,0,0,0,5],[0,1,0,0,-5],[1,0,0,0,5],[1,1,0,0,-5]];perimeter=orthogonalPerimeter;outlineConnect=0;targetShapes=umlLifeline;portConstraint=eastwest;newEdgeStyle={&quot;curved&quot;:0,&quot;rounded&quot;:0};" vertex="1" parent="CG28MD9KbIUiWtX6ZoJQ-5">
          <mxGeometry x="45" y="206" width="10" height="80" as="geometry" />
        </mxCell>
        <mxCell id="CG28MD9KbIUiWtX6ZoJQ-8" value="Reader" style="shape=umlLifeline;perimeter=lifelinePerimeter;whiteSpace=wrap;html=1;container=1;dropTarget=0;collapsible=0;recursiveResize=0;outlineConnect=0;portConstraint=eastwest;newEdgeStyle={&quot;curved&quot;:0,&quot;rounded&quot;:0};" vertex="1" parent="1">
          <mxGeometry x="290" y="78" width="100" height="492" as="geometry" />
        </mxCell>
        <mxCell id="CG28MD9KbIUiWtX6ZoJQ-59" value="" style="html=1;points=[[0,0,0,0,5],[0,1,0,0,-5],[1,0,0,0,5],[1,1,0,0,-5]];perimeter=orthogonalPerimeter;outlineConnect=0;targetShapes=umlLifeline;portConstraint=eastwest;newEdgeStyle={&quot;curved&quot;:0,&quot;rounded&quot;:0};" vertex="1" parent="CG28MD9KbIUiWtX6ZoJQ-8">
          <mxGeometry x="45" y="71" width="10" height="319" as="geometry" />
        </mxCell>
        <mxCell id="CG28MD9KbIUiWtX6ZoJQ-9" value="Temporary Server" style="shape=umlLifeline;perimeter=lifelinePerimeter;whiteSpace=wrap;html=1;container=1;dropTarget=0;collapsible=0;recursiveResize=0;outlineConnect=0;portConstraint=eastwest;newEdgeStyle={&quot;curved&quot;:0,&quot;rounded&quot;:0};" vertex="1" parent="1">
          <mxGeometry x="580" y="80" width="100" height="490" as="geometry" />
        </mxCell>
        <mxCell id="CG28MD9KbIUiWtX6ZoJQ-63" value="" style="html=1;points=[[0,0,0,0,5],[0,1,0,0,-5],[1,0,0,0,5],[1,1,0,0,-5]];perimeter=orthogonalPerimeter;outlineConnect=0;targetShapes=umlLifeline;portConstraint=eastwest;newEdgeStyle={&quot;curved&quot;:0,&quot;rounded&quot;:0};" vertex="1" parent="CG28MD9KbIUiWtX6ZoJQ-9">
          <mxGeometry x="45" y="68" width="10" height="62" as="geometry" />
        </mxCell>
        <mxCell id="CG28MD9KbIUiWtX6ZoJQ-64" value="" style="html=1;points=[[0,0,0,0,5],[0,1,0,0,-5],[1,0,0,0,5],[1,1,0,0,-5]];perimeter=orthogonalPerimeter;outlineConnect=0;targetShapes=umlLifeline;portConstraint=eastwest;newEdgeStyle={&quot;curved&quot;:0,&quot;rounded&quot;:0};" vertex="1" parent="CG28MD9KbIUiWtX6ZoJQ-9">
          <mxGeometry x="45" y="170" width="10" height="30" as="geometry" />
        </mxCell>
        <mxCell id="CG28MD9KbIUiWtX6ZoJQ-65" value="" style="html=1;points=[[0,0,0,0,5],[0,1,0,0,-5],[1,0,0,0,5],[1,1,0,0,-5]];perimeter=orthogonalPerimeter;outlineConnect=0;targetShapes=umlLifeline;portConstraint=eastwest;newEdgeStyle={&quot;curved&quot;:0,&quot;rounded&quot;:0};" vertex="1" parent="CG28MD9KbIUiWtX6ZoJQ-9">
          <mxGeometry x="45" y="300" width="10" height="30" as="geometry" />
        </mxCell>
        <mxCell id="CG28MD9KbIUiWtX6ZoJQ-10" value="Parking" style="shape=umlLifeline;perimeter=lifelinePerimeter;whiteSpace=wrap;html=1;container=1;dropTarget=0;collapsible=0;recursiveResize=0;outlineConnect=0;portConstraint=eastwest;newEdgeStyle={&quot;curved&quot;:0,&quot;rounded&quot;:0};" vertex="1" parent="1">
          <mxGeometry x="440" y="80" width="100" height="490" as="geometry" />
        </mxCell>
        <mxCell id="CG28MD9KbIUiWtX6ZoJQ-60" value="" style="html=1;points=[[0,0,0,0,5],[0,1,0,0,-5],[1,0,0,0,5],[1,1,0,0,-5]];perimeter=orthogonalPerimeter;outlineConnect=0;targetShapes=umlLifeline;portConstraint=eastwest;newEdgeStyle={&quot;curved&quot;:0,&quot;rounded&quot;:0};" vertex="1" parent="CG28MD9KbIUiWtX6ZoJQ-10">
          <mxGeometry x="45" y="128" width="10" height="50" as="geometry" />
        </mxCell>
        <mxCell id="CG28MD9KbIUiWtX6ZoJQ-11" value="Central Server" style="shape=umlLifeline;perimeter=lifelinePerimeter;whiteSpace=wrap;html=1;container=1;dropTarget=0;collapsible=0;recursiveResize=0;outlineConnect=0;portConstraint=eastwest;newEdgeStyle={&quot;curved&quot;:0,&quot;rounded&quot;:0};" vertex="1" parent="1">
          <mxGeometry x="720" y="80" width="100" height="490" as="geometry" />
        </mxCell>
        <mxCell id="CG28MD9KbIUiWtX6ZoJQ-66" value="" style="html=1;points=[[0,0,0,0,5],[0,1,0,0,-5],[1,0,0,0,5],[1,1,0,0,-5]];perimeter=orthogonalPerimeter;outlineConnect=0;targetShapes=umlLifeline;portConstraint=eastwest;newEdgeStyle={&quot;curved&quot;:0,&quot;rounded&quot;:0};" vertex="1" parent="CG28MD9KbIUiWtX6ZoJQ-11">
          <mxGeometry x="45" y="128" width="10" height="102" as="geometry" />
        </mxCell>
        <mxCell id="CG28MD9KbIUiWtX6ZoJQ-12" value="" style="endArrow=classic;html=1;rounded=0;exitX=0.4;exitY=0.263;exitDx=0;exitDy=0;exitPerimeter=0;" edge="1" parent="1" target="CG28MD9KbIUiWtX6ZoJQ-5">
          <mxGeometry width="50" height="50" relative="1" as="geometry">
            <mxPoint x="78" y="139.99999999999997" as="sourcePoint" />
            <mxPoint x="180" y="140.1" as="targetPoint" />
          </mxGeometry>
        </mxCell>
        <mxCell id="CG28MD9KbIUiWtX6ZoJQ-13" value="" style="endArrow=classic;html=1;rounded=0;" edge="1" parent="1" target="CG28MD9KbIUiWtX6ZoJQ-9">
          <mxGeometry width="50" height="50" relative="1" as="geometry">
            <mxPoint x="340" y="160" as="sourcePoint" />
            <mxPoint x="619.5" y="160" as="targetPoint" />
          </mxGeometry>
        </mxCell>
        <mxCell id="CG28MD9KbIUiWtX6ZoJQ-14" value="" style="endArrow=classic;html=1;rounded=0;exitX=0.53;exitY=0.263;exitDx=0;exitDy=0;exitPerimeter=0;" edge="1" parent="1">
          <mxGeometry width="50" height="50" relative="1" as="geometry">
            <mxPoint x="193" y="159.99999999999997" as="sourcePoint" />
            <mxPoint x="340" y="160" as="targetPoint" />
          </mxGeometry>
        </mxCell>
        <mxCell id="CG28MD9KbIUiWtX6ZoJQ-15" value="Checking Parking Availability" style="html=1;verticalAlign=bottom;endArrow=open;dashed=1;endSize=8;curved=0;rounded=0;" edge="1" parent="1" target="CG28MD9KbIUiWtX6ZoJQ-8">
          <mxGeometry relative="1" as="geometry">
            <mxPoint x="625" y="200" as="sourcePoint" />
            <mxPoint x="355" y="200" as="targetPoint" />
          </mxGeometry>
        </mxCell>
        <mxCell id="CG28MD9KbIUiWtX6ZoJQ-16" value="" style="endArrow=classic;html=1;rounded=0;" edge="1" parent="1">
          <mxGeometry width="50" height="50" relative="1" as="geometry">
            <mxPoint x="339.5" y="229.5" as="sourcePoint" />
            <mxPoint x="489.5" y="229.5" as="targetPoint" />
          </mxGeometry>
        </mxCell>
        <mxCell id="CG28MD9KbIUiWtX6ZoJQ-17" value="Slot Found" style="html=1;verticalAlign=bottom;endArrow=open;dashed=1;endSize=8;curved=0;rounded=0;" edge="1" parent="1" source="CG28MD9KbIUiWtX6ZoJQ-10" target="CG28MD9KbIUiWtX6ZoJQ-8">
          <mxGeometry x="0.2016" y="-1" relative="1" as="geometry">
            <mxPoint x="430" y="260" as="sourcePoint" />
            <mxPoint x="380" y="240" as="targetPoint" />
            <Array as="points">
              <mxPoint x="420" y="250" />
            </Array>
            <mxPoint as="offset" />
          </mxGeometry>
        </mxCell>
        <mxCell id="CG28MD9KbIUiWtX6ZoJQ-19" value="" style="endArrow=classic;html=1;rounded=0;" edge="1" parent="1">
          <mxGeometry width="50" height="50" relative="1" as="geometry">
            <mxPoint x="339.5" y="264.5" as="sourcePoint" />
            <mxPoint x="630" y="264.5" as="targetPoint" />
            <Array as="points">
              <mxPoint x="405.5" y="264.5" />
            </Array>
          </mxGeometry>
        </mxCell>
        <mxCell id="CG28MD9KbIUiWtX6ZoJQ-20" value="" style="endArrow=classic;html=1;rounded=0;" edge="1" parent="1" target="CG28MD9KbIUiWtX6ZoJQ-11">
          <mxGeometry width="50" height="50" relative="1" as="geometry">
            <mxPoint x="700" y="265" as="sourcePoint" />
            <mxPoint x="769.5" y="270" as="targetPoint" />
            <Array as="points">
              <mxPoint x="740" y="265" />
            </Array>
          </mxGeometry>
        </mxCell>
        <mxCell id="CG28MD9KbIUiWtX6ZoJQ-22" value="" style="endArrow=classic;html=1;rounded=0;exitX=0.53;exitY=0.378;exitDx=0;exitDy=0;exitPerimeter=0;" edge="1" parent="1" source="CG28MD9KbIUiWtX6ZoJQ-9" target="CG28MD9KbIUiWtX6ZoJQ-21">
          <mxGeometry width="50" height="50" relative="1" as="geometry">
            <mxPoint x="633" y="270" as="sourcePoint" />
            <mxPoint x="769.5" y="270" as="targetPoint" />
          </mxGeometry>
        </mxCell>
        <mxCell id="CG28MD9KbIUiWtX6ZoJQ-21" value="&lt;font style=&quot;font-size: 11px;&quot;&gt;Redundancy &lt;br&gt;Checker&lt;/font&gt;" style="rounded=0;whiteSpace=wrap;html=1;" vertex="1" parent="1">
          <mxGeometry x="660" y="240" width="80" height="40" as="geometry" />
        </mxCell>
        <mxCell id="CG28MD9KbIUiWtX6ZoJQ-24" value="" style="html=1;verticalAlign=bottom;endArrow=open;dashed=1;endSize=8;curved=0;rounded=0;" edge="1" parent="1">
          <mxGeometry x="0.0012" relative="1" as="geometry">
            <mxPoint x="769.5" y="300" as="sourcePoint" />
            <mxPoint x="340" y="300" as="targetPoint" />
            <mxPoint as="offset" />
          </mxGeometry>
        </mxCell>
        <mxCell id="CG28MD9KbIUiWtX6ZoJQ-25" value="Return Pid" style="html=1;verticalAlign=bottom;endArrow=open;dashed=1;endSize=8;curved=0;rounded=0;" edge="1" parent="1">
          <mxGeometry relative="1" as="geometry">
            <mxPoint x="339.5" y="310" as="sourcePoint" />
            <mxPoint x="189.5" y="310" as="targetPoint" />
          </mxGeometry>
        </mxCell>
        <mxCell id="CG28MD9KbIUiWtX6ZoJQ-28" value="" style="endArrow=classic;html=1;rounded=0;entryX=0.5;entryY=0.614;entryDx=0;entryDy=0;entryPerimeter=0;" edge="1" parent="1" source="CG28MD9KbIUiWtX6ZoJQ-70" target="CG28MD9KbIUiWtX6ZoJQ-8">
          <mxGeometry width="50" height="50" relative="1" as="geometry">
            <mxPoint x="400" y="420" as="sourcePoint" />
            <mxPoint x="450" y="370" as="targetPoint" />
          </mxGeometry>
        </mxCell>
        <mxCell id="CG28MD9KbIUiWtX6ZoJQ-29" value="" style="endArrow=classic;html=1;rounded=0;exitX=0.53;exitY=0.665;exitDx=0;exitDy=0;exitPerimeter=0;" edge="1" parent="1" target="CG28MD9KbIUiWtX6ZoJQ-9">
          <mxGeometry width="50" height="50" relative="1" as="geometry">
            <mxPoint x="340" y="400.00000000000006" as="sourcePoint" />
            <mxPoint x="486.5" y="400.00000000000006" as="targetPoint" />
          </mxGeometry>
        </mxCell>
        <mxCell id="CG28MD9KbIUiWtX6ZoJQ-32" value="" style="html=1;verticalAlign=bottom;endArrow=open;dashed=1;endSize=8;curved=0;rounded=0;" edge="1" parent="1">
          <mxGeometry relative="1" as="geometry">
            <mxPoint x="340" y="430" as="sourcePoint" />
            <mxPoint x="80" y="430" as="targetPoint" />
          </mxGeometry>
        </mxCell>
        <mxCell id="CG28MD9KbIUiWtX6ZoJQ-33" value="" style="swimlane;startSize=0;" vertex="1" parent="1">
          <mxGeometry x="170" y="290" width="630" height="80" as="geometry" />
        </mxCell>
        <mxCell id="CG28MD9KbIUiWtX6ZoJQ-46" value="Response of Availability" style="text;html=1;align=center;verticalAlign=middle;resizable=0;points=[];autosize=1;strokeColor=none;fillColor=none;" vertex="1" parent="CG28MD9KbIUiWtX6ZoJQ-33">
          <mxGeometry x="325" width="150" height="30" as="geometry" />
        </mxCell>
        <mxCell id="CG28MD9KbIUiWtX6ZoJQ-35" value="" style="swimlane;startSize=0;" vertex="1" parent="1">
          <mxGeometry x="170" y="330" width="630" height="40" as="geometry" />
        </mxCell>
        <mxCell id="CG28MD9KbIUiWtX6ZoJQ-26" value="Parking Not Available" style="html=1;verticalAlign=bottom;endArrow=open;dashed=1;endSize=8;curved=0;rounded=0;" edge="1" parent="CG28MD9KbIUiWtX6ZoJQ-35" source="CG28MD9KbIUiWtX6ZoJQ-49">
          <mxGeometry x="1" y="70" relative="1" as="geometry">
            <mxPoint x="170" y="19.5" as="sourcePoint" />
            <mxPoint x="20" y="19.5" as="targetPoint" />
            <mxPoint as="offset" />
          </mxGeometry>
        </mxCell>
        <mxCell id="CG28MD9KbIUiWtX6ZoJQ-49" value="" style="shape=umlDestroy;whiteSpace=wrap;html=1;strokeWidth=3;targetShapes=umlLifeline;" vertex="1" parent="CG28MD9KbIUiWtX6ZoJQ-35">
          <mxGeometry x="10" y="10" width="20" height="20" as="geometry" />
        </mxCell>
        <mxCell id="CG28MD9KbIUiWtX6ZoJQ-37" value="Vehicle Arrived" style="text;html=1;align=center;verticalAlign=middle;resizable=0;points=[];autosize=1;strokeColor=none;fillColor=none;" vertex="1" parent="1">
          <mxGeometry x="80" y="118" width="100" height="30" as="geometry" />
        </mxCell>
        <mxCell id="CG28MD9KbIUiWtX6ZoJQ-38" value="Send Parking Request" style="text;html=1;align=center;verticalAlign=middle;resizable=0;points=[];autosize=1;strokeColor=none;fillColor=none;" vertex="1" parent="1">
          <mxGeometry x="190" y="138" width="140" height="30" as="geometry" />
        </mxCell>
        <mxCell id="CG28MD9KbIUiWtX6ZoJQ-40" value="Send Req. To Process" style="text;html=1;align=center;verticalAlign=middle;resizable=0;points=[];autosize=1;strokeColor=none;fillColor=none;" vertex="1" parent="1">
          <mxGeometry x="340" y="138" width="140" height="30" as="geometry" />
        </mxCell>
        <mxCell id="CG28MD9KbIUiWtX6ZoJQ-42" value="Find Slot" style="text;html=1;align=center;verticalAlign=middle;resizable=0;points=[];autosize=1;strokeColor=none;fillColor=none;" vertex="1" parent="1">
          <mxGeometry x="365" y="208" width="70" height="30" as="geometry" />
        </mxCell>
        <mxCell id="CG28MD9KbIUiWtX6ZoJQ-44" value="Send Parking Id" style="text;html=1;align=center;verticalAlign=middle;resizable=0;points=[];autosize=1;strokeColor=none;fillColor=none;" vertex="1" parent="1">
          <mxGeometry x="490" y="238" width="110" height="30" as="geometry" />
        </mxCell>
        <mxCell id="CG28MD9KbIUiWtX6ZoJQ-52" value="" style="html=1;verticalAlign=bottom;endArrow=open;dashed=1;endSize=8;curved=0;rounded=0;" edge="1" parent="1" source="CG28MD9KbIUiWtX6ZoJQ-8" target="CG28MD9KbIUiWtX6ZoJQ-49">
          <mxGeometry relative="1" as="geometry">
            <mxPoint x="510" y="679.5" as="sourcePoint" />
            <mxPoint x="360" y="679.5" as="targetPoint" />
          </mxGeometry>
        </mxCell>
        <mxCell id="CG28MD9KbIUiWtX6ZoJQ-54" value="Vehicle Dispatched" style="text;html=1;align=center;verticalAlign=middle;resizable=0;points=[];autosize=1;strokeColor=none;fillColor=none;" vertex="1" parent="1">
          <mxGeometry x="195" y="378" width="130" height="30" as="geometry" />
        </mxCell>
        <mxCell id="CG28MD9KbIUiWtX6ZoJQ-55" value="Update Dispatch Information" style="text;html=1;align=center;verticalAlign=middle;resizable=0;points=[];autosize=1;strokeColor=none;fillColor=none;" vertex="1" parent="1">
          <mxGeometry x="390" y="378" width="180" height="30" as="geometry" />
        </mxCell>
        <mxCell id="CG28MD9KbIUiWtX6ZoJQ-56" value="Send Dispatched Notification" style="text;html=1;align=center;verticalAlign=middle;resizable=0;points=[];autosize=1;strokeColor=none;fillColor=none;" vertex="1" parent="1">
          <mxGeometry x="120" y="408" width="180" height="30" as="geometry" />
        </mxCell>
        <mxCell id="CG28MD9KbIUiWtX6ZoJQ-71" value="" style="endArrow=classic;html=1;rounded=0;entryX=0.5;entryY=0.614;entryDx=0;entryDy=0;entryPerimeter=0;" edge="1" parent="1" source="CG28MD9KbIUiWtX6ZoJQ-5" target="CG28MD9KbIUiWtX6ZoJQ-70">
          <mxGeometry width="50" height="50" relative="1" as="geometry">
            <mxPoint x="190" y="380" as="sourcePoint" />
            <mxPoint x="340" y="380" as="targetPoint" />
          </mxGeometry>
        </mxCell>
        <mxCell id="CG28MD9KbIUiWtX6ZoJQ-70" value="" style="html=1;points=[[0,0,0,0,5],[0,1,0,0,-5],[1,0,0,0,5],[1,1,0,0,-5]];perimeter=orthogonalPerimeter;outlineConnect=0;targetShapes=umlLifeline;portConstraint=eastwest;newEdgeStyle={&quot;curved&quot;:0,&quot;rounded&quot;:0};" vertex="1" parent="1">
          <mxGeometry x="185" y="370" width="10" height="30" as="geometry" />
        </mxCell>
      </root>
    </mxGraphModel>
  </diagram>
</mxfile>
